<svg xmlns="http://www.w3.org/2000/svg" width="330" height="175" viewBox="0 0 330 175"><rect width="100%" height="100%" fill="#DDDDDD"/><path fill="#999999" d="m70.715 80.965-2.86-.51q.33-2.28 1.28-4.01t2.36-2.88q1.42-1.16 3.26-1.74t3.95-.58q2.2 0 3.97.62 1.77.63 3.03 1.74 1.25 1.11 1.92 2.61.67 1.49.67 3.23 0 1.52-.34 2.67-.34 1.16-.98 2.02t-1.58 1.45q-.95.59-2.14.99 2.86.9 4.27 2.75t1.41 4.64q0 2.38-.88 4.2-.88 1.83-2.38 3.07-1.49 1.25-3.46 1.88-1.97.64-4.17.64-2.4 0-4.18-.55t-3.1-1.63q-1.32-1.07-2.25-2.64-.92-1.56-1.58-3.6l2.4-.99q.94-.4 1.77-.21.82.18 1.2.89.39.77.87 1.52.47.74 1.13 1.33.66.58 1.55.94.89.37 2.12.37 1.39 0 2.42-.45 1.04-.46 1.73-1.18.69-.73 1.03-1.62.35-.89.35-1.79 0-1.15-.25-2.08-.24-.94-1.01-1.6t-2.21-1.03-3.86-.37v-3.88q2-.02 3.32-.37t2.1-.98 1.09-1.51.31-1.93q0-2.25-1.25-3.41-1.26-1.17-3.35-1.17-.97 0-1.78.28-.81.27-1.46.77-.65.49-1.09 1.15t-.66 1.45q-.38 1.02-.98 1.35-.61.33-1.71.15m25.52 0-2.86-.51q.33-2.28 1.28-4.01t2.36-2.88q1.42-1.16 3.26-1.74t3.95-.58q2.2 0 3.97.62 1.77.63 3.03 1.74 1.25 1.11 1.92 2.61.67 1.49.67 3.23 0 1.52-.34 2.67-.34 1.16-.98 2.02t-1.58 1.45q-.95.59-2.14.99 2.86.9 4.27 2.75t1.41 4.64q0 2.38-.88 4.2-.88 1.83-2.38 3.07-1.49 1.25-3.46 1.88-1.97.64-4.17.64-2.4 0-4.18-.55t-3.1-1.63q-1.32-1.07-2.25-2.64-.92-1.56-1.58-3.6l2.4-.99q.94-.4 1.77-.21.82.18 1.2.89.39.77.87 1.52.47.74 1.13 1.33.66.58 1.55.94.89.37 2.12.37 1.39 0 2.42-.45 1.04-.46 1.73-1.18.69-.73 1.03-1.62.35-.89.35-1.79 0-1.15-.25-2.08-.24-.94-1.01-1.6t-2.21-1.03-3.86-.37v-3.88q2-.02 3.32-.37t2.1-.98 1.09-1.51.31-1.93q0-2.25-1.25-3.41-1.26-1.17-3.35-1.17-.97 0-1.78.28-.81.27-1.46.77-.65.49-1.09 1.15t-.66 1.45q-.38 1.02-.98 1.35-.61.33-1.71.15m44.71 6.53q0 4.16-.89 7.23t-2.47 5.07q-1.57 2-3.72 2.98-2.14.98-4.63.98-2.48 0-4.61-.98-2.12-.98-3.68-2.98t-2.44-5.07-.88-7.23q0-4.18.88-7.23.88-3.06 2.44-5.06 1.56-2.01 3.68-2.98 2.13-.98 4.61-.98 2.49 0 4.63.98 2.15.97 3.72 2.98 1.58 2 2.47 5.06.89 3.05.89 7.23m-5.61 0q0-3.45-.51-5.72-.5-2.26-1.35-3.6-.85-1.35-1.95-1.88-1.1-.54-2.29-.54-1.16 0-2.25.54-1.09.53-1.93 1.88-.83 1.34-1.33 3.6-.49 2.27-.49 5.72 0 3.46.49 5.72.5 2.27 1.33 3.61.84 1.34 1.93 1.88t2.25.54q1.19 0 2.29-.54t1.95-1.88 1.35-3.61q.51-2.26.51-5.72m40.54 8.63-2.88 2.84-7.46-7.46-7.52 7.5-2.88-2.84 7.52-7.54-7.17-7.18 2.86-2.86 7.17 7.18 7.13-7.13 2.9 2.86-7.15 7.15zm30.12 3.21h5.72v4.07h-17.6v-4.07h6.45v-18.55q0-1.1.06-2.26l-4.57 3.83q-.4.3-.78.38-.39.08-.73.01-.34-.06-.6-.23-.27-.16-.4-.36l-1.72-2.36 9.71-8.25h4.46zm10.52-27.74h21.98v2.35q0 1.06-.22 1.71t-.44 1.09l-12.06 24.81q-.37.77-1.06 1.31-.68.54-1.82.54h-3.94l12.3-24.31q.42-.75.82-1.37.41-.63.92-1.2h-15.23q-.5 0-.88-.38-.37-.37-.37-.88zm33.53 4.93-1.13 6.62q1.06-.22 2.03-.32t1.87-.1q2.51 0 4.42.75t3.21 2.07 1.96 3.09.66 3.81q0 2.53-.89 4.62t-2.48 3.58q-1.58 1.48-3.75 2.3-2.16.81-4.72.81-1.49 0-2.83-.31-1.35-.3-2.52-.82-1.18-.52-2.18-1.19t-1.79-1.42l1.67-2.31q.53-.75 1.38-.75.55 0 1.13.36.57.35 1.3.77.74.41 1.74.77 1 .35 2.41.35 1.5 0 2.64-.49 1.15-.48 1.9-1.35.76-.87 1.15-2.07.38-1.2.38-2.6 0-2.6-1.5-4.06-1.51-1.47-4.46-1.47-2.26 0-4.64.84l-3.39-.97 2.64-15.44h15.71v2.31q0 1.16-.73 1.89-.72.73-2.46.73z"/></svg>